<?xml version="1.0" encoding="utf-8"?>
<!-- Generator: Adobe Illustrator 25.4.1, SVG Export Plug-In . SVG Version: 6.00 Build 0)  -->
<svg version="1.1" id="Layer_2" xmlns="http://www.w3.org/2000/svg" xmlns:xlink="http://www.w3.org/1999/xlink" x="0px" y="0px"
	 viewBox="0 0 21 21" style="enable-background:new 0 0 21 21;" xml:space="preserve">
<style type="text/css">
	.st0{fill:#FFFFFF;}
</style>
<path class="st0" d="M19,2.4c0,0,1.9-0.7,1.7,1.1c-0.1,0.7-0.5,3.3-0.9,6.1l-1.3,8.3c0,0-0.1,1.2-1.1,1.4c-0.9,0.2-2.4-0.7-2.6-1
	c-0.2-0.2-4-2.5-5.3-3.7c-0.4-0.3-0.8-1,0.1-1.7l5.5-5.3c0.6-0.6,1.3-2.1-1.4-0.3l-7.4,5c0,0-0.8,0.5-2.4,0.1l-3.4-1.1
	c0,0-1.3-0.8,0.9-1.6C6.8,7.3,13.3,4.8,19,2.4z"/>
</svg>
