<?xml version="1.0" encoding="utf-8"?>
<!-- Generator: Adobe Illustrator 25.4.1, SVG Export Plug-In . SVG Version: 6.00 Build 0)  -->
<svg version="1.1" id="Layer_1" xmlns="http://www.w3.org/2000/svg" xmlns:xlink="http://www.w3.org/1999/xlink" x="0px" y="0px"
	 viewBox="0 0 21 21" style="enable-background:new 0 0 21 21;" xml:space="preserve">
<style type="text/css">
	.st0{fill:#FFFFFF;}
</style>
<g>
	<path class="st0" d="M19.3,4.1L21,2.5V2.2h-5.8l-4.1,10.3L6.4,2.2H0.3v0.4l2,2.4c0.2,0.2,0.3,0.4,0.3,0.7v9.3
		c0.1,0.3,0,0.7-0.3,0.9L0,18.4v0.3h6.3v-0.4L4,15.8c-0.2-0.2-0.4-0.6-0.3-0.9v-8l5.5,12h0.6l4.7-12v9.5c0,0.2,0,0.3-0.2,0.5
		l-1.7,1.6v0.4H21v-0.4l-1.6-1.6c-0.1-0.1-0.2-0.3-0.2-0.5V4.6C19.1,4.4,19.2,4.2,19.3,4.1L19.3,4.1z M19.3,4.1"/>
</g>
</svg>
