<?xml version="1.0" encoding="utf-8"?>
<!-- Generator: Adobe Illustrator 25.4.1, SVG Export Plug-In . SVG Version: 6.00 Build 0)  -->
<svg version="1.1" id="Layer_1" xmlns="http://www.w3.org/2000/svg" xmlns:xlink="http://www.w3.org/1999/xlink" x="0px" y="0px"
	 viewBox="0 0 41.6 40.4" style="enable-background:new 0 0 41.6 40.4;" xml:space="preserve">
<style type="text/css">
	.st0{fill:none;stroke:#5AFFE7;stroke-width:2;stroke-miterlimit:10;}
	.st1{fill:#5AFFE7;}
</style>
<circle class="st0" cx="21" cy="20.3" r="18.3"/>
<path class="st1" d="M10.3,13.3c0.9,0,1.6-0.7,1.6-1.6c0-0.9-0.7-1.6-1.6-1.6c-0.9,0-1.6,0.7-1.6,1.6C8.7,12.6,9.4,13.3,10.3,13.3z
	 M13.2,22.1c0.9,0,1.6-0.7,1.6-1.6c0-0.9-0.7-1.6-1.6-1.6c-0.9,0-1.6,0.7-1.6,1.6C11.6,21.4,12.3,22.1,13.2,22.1z M25.8,13.5
	c0,0.9,0.7,1.6,1.6,1.6c0.9,0,1.6-0.7,1.6-1.6c0-0.9-0.7-1.6-1.6-1.6C26.5,11.9,25.8,12.6,25.8,13.5z M33.3,22.6
	c-0.4,2-1.2,3.9-2.4,5.5c-0.8-0.5-1.8-0.9-2.8-1.2c0.5-1.8,0.8-3.7,0.8-5.8h3c-0.1-0.2-0.1-0.4-0.1-0.7c0-0.2,0-0.3,0-0.5h-3
	c0-1.4-0.2-2.8-0.4-4.1c-0.3,0.2-0.7,0.3-1.1,0.3c0.2,1.2,0.4,2.5,0.4,3.8h-6.5v-4.8c1.3,0,2.6-0.2,3.8-0.4
	c-0.2-0.3-0.3-0.7-0.3-1.1c-1.1,0.2-2.3,0.3-3.5,0.3V7.8c0.5,0,1,0.1,1.6,0.2c1.2,0.7,2.2,1.9,3,3.5c0.3-0.2,0.7-0.4,1.1-0.4
	c-0.5-0.9-1-1.7-1.5-2.4c1.8,0.7,3.4,1.8,4.7,3.2c-0.2,0.1-0.4,0.2-0.6,0.3c0.2,0.3,0.3,0.7,0.4,1.1c0.3-0.2,0.6-0.3,0.9-0.5
	c1.2,1.6,2,3.4,2.4,5.4c0.4-0.2,0.8-0.3,1.2-0.3c0.3,0,0.5,0,0.8,0.1C34.1,11.1,28,5.8,20.8,5.8c-3.6,0-7,1.3-9.6,3.5
	c0.6,0.3,1.2,0.8,1.4,1.4c1-0.9,2.2-1.6,3.5-2.1c-0.9,1.1-1.7,2.6-2.3,4.2c-0.4-0.1-0.7-0.3-1.1-0.4c-0.1,0.4-0.3,0.7-0.6,1
	c0.4,0.2,0.9,0.4,1.3,0.5c-0.4,1.2-0.6,2.6-0.7,4c0.1,0,0.3,0,0.5,0c0.2,0,0.5,0,0.7,0.1c0.1-1.3,0.4-2.6,0.7-3.7
	c1.8,0.5,3.7,0.8,5.7,0.8v4.8h-4.6c0,0.2,0.1,0.4,0.1,0.6c0,0.2,0,0.4-0.1,0.6h4.6v2.8c0.2,0,0.4-0.1,0.5-0.1c0.2,0,0.4,0,0.6,0.1
	V21h6.5c0,2-0.3,3.8-0.8,5.5c-1.2-0.3-2.5-0.6-3.8-0.7c0,0.2,0,0.3,0,0.5c0,0.2,0,0.4-0.1,0.6c1.2,0.1,2.4,0.3,3.5,0.6
	c-0.9,2.5-2.2,4.5-3.8,5.4c-0.5,0.1-1,0.1-1.6,0.2v-4.4c-0.2,0-0.4,0.1-0.6,0.1c-0.2,0-0.4,0-0.5-0.1v4.4c-0.5,0-1-0.1-1.6-0.2
	c-1.6-0.9-2.9-2.9-3.8-5.4c1.1-0.3,2.2-0.5,3.4-0.6c-0.1-0.2-0.1-0.4-0.1-0.7c0-0.2,0-0.3,0-0.5c-1.3,0.1-2.6,0.4-3.7,0.7
	c-0.3-1.1-0.5-2.3-0.7-3.6C13.6,23,13.4,23,13.2,23c-0.2,0-0.3,0-0.5,0c0.1,1.4,0.4,2.7,0.7,3.9c-1,0.3-1.9,0.8-2.8,1.2
	c-1.5-2-2.4-4.4-2.5-7.1h2.6c0-0.2-0.1-0.4-0.1-0.6c0-0.2,0-0.4,0.1-0.6H8.1c0.1-2.1,0.7-4,1.7-5.7C9.1,14,8.5,13.6,8.2,13
	c-1.3,2.2-2,4.7-2,7.5c0,8.1,6.6,14.7,14.7,14.7c7.3,0,13.4-5.4,14.5-12.4c-0.3,0.1-0.5,0.1-0.8,0.1C34.1,22.9,33.7,22.8,33.3,22.6z
	 M20.2,14c-1.9,0-3.7-0.3-5.3-0.8c0.9-2.5,2.2-4.4,3.8-5.3c0.5-0.1,1-0.1,1.6-0.2V14z M11.4,29c0.7-0.4,1.5-0.8,2.4-1.1
	c0.6,1.7,1.4,3.2,2.4,4.3C14.3,31.5,12.7,30.4,11.4,29z M25.5,32.3c1-1.1,1.8-2.6,2.4-4.3c0.9,0.3,1.7,0.6,2.4,1.1
	C28.9,30.4,27.3,31.5,25.5,32.3z M34.5,18.8c-0.9,0-1.6,0.7-1.6,1.6c0,0.9,0.7,1.6,1.6,1.6c0.9,0,1.6-0.7,1.6-1.6
	C36.1,19.5,35.4,18.8,34.5,18.8z M22.4,26.3c0-0.9-0.7-1.6-1.6-1.6c-0.9,0-1.6,0.7-1.6,1.6c0,0.9,0.7,1.6,1.6,1.6
	C21.7,27.9,22.4,27.2,22.4,26.3z"/>
</svg>
