<?xml version="1.0" encoding="utf-8"?>
<!-- Generator: Adobe Illustrator 25.4.1, SVG Export Plug-In . SVG Version: 6.00 Build 0)  -->
<svg version="1.1" id="Layer_1" xmlns="http://www.w3.org/2000/svg" xmlns:xlink="http://www.w3.org/1999/xlink" x="0px" y="0px"
	 viewBox="0 0 41.6 40.4" style="enable-background:new 0 0 41.6 40.4;" xml:space="preserve">
<style type="text/css">
	.st0{fill:none;stroke:#5AFFE7;stroke-width:2;stroke-miterlimit:10;}
	.st1{fill:#5AFFE7;}
</style>
<circle class="st0" cx="21" cy="20.3" r="18.3"/>
<path class="st1" d="M30.4,9.1V11c0,0,0,0-0.1,0l-21.1,5v-1H7.5v10.6h1.8v-1l3.1,0.7l-0.4,1.7c-0.2,1,0.4,1.9,1.3,2.2l4.9,1.2
	c0.1,0,0.3,0,0.4,0c0.8,0,1.6-0.6,1.8-1.4l0.4-1.7l9.6,2.3c0,0,0,0,0.1,0v1.9h1.8V9.1H30.4z M10.8,23l-1.5-0.4v-4.9l1.5-0.4V23z
	 M18.6,28.5C18.6,28.5,18.6,28.5,18.6,28.5l-4.9-1.1c0,0,0,0,0-0.1l0.4-1.7l5,1.2L18.6,28.5z M26.5,26.7l-13.7-3.2v-6.5l13.7-3.2
	V26.7z M30.4,27.6l-2-0.5V13.3l2-0.5V27.6z"/>
</svg>
