<?xml version="1.0" encoding="utf-8"?>
<!-- Generator: Adobe Illustrator 25.4.1, SVG Export Plug-In . SVG Version: 6.00 Build 0)  -->
<svg version="1.1" id="Layer_2_00000181087048088099745320000004770560555152047246_"
	 xmlns="http://www.w3.org/2000/svg" xmlns:xlink="http://www.w3.org/1999/xlink" x="0px" y="0px" viewBox="0 0 413.9 78"
	 style="enable-background:new 0 0 413.9 78;" xml:space="preserve">
<style type="text/css">
	.st0{fill:#FFFFFF;}
	.st1{fill:#EAEAEA;}
	.st2{fill:#D3D3D3;}
	.st3{fill:#CECECE;}
	.st4{fill:#DDDDDD;}
	.st5{fill:#C6C6C6;}
	.st6{fill:#B7B7B7;}
</style>
<g>
	<path class="st0" d="M79.8,34.2v-2V29h16.7h2.7l2.5,2.4v2.8v4.7l-1.3,1.3l1.3,1.3v4.7v2.7l-2.5,2.5h-2.7H84.9h-5.2v-4.6v-0.6v-3.4
		v-5.1L79.8,34.2L79.8,34.2z M84.9,34.2v3.4h10.4l1.1-1.1v-1.2l-1.1-1.1C95.3,34.2,84.9,34.2,84.9,34.2z M84.9,46.1h10.4l1.1-1.1
		v-1.2l-1.1-1.1H84.9V46.1z"/>
	<path class="st0" d="M116.1,29.1v14v2.1l1.1,1.1h11.2v5.1h-12.3h-2.7l-2.5-2.5V43v-1.8V29.1H116.1z"/>
	<path class="st0" d="M137.6,34.2L137.6,34.2v-2.7L140,29h2.8h11.5h2.8l2.4,2.5v2.6v14.7l-2.4,2.4h-2.8h-11.5H140l-2.4-2.4v-2.7
		V34.2z M142.8,35.3v9.8l1.1,1.1h9.2l1.1-1.1v-9.8l-1.1-1.1h-9.2L142.8,35.3z"/>
	<path class="st0" d="M173.9,29.1h11.5h2.7l2.5,2.5v2.7v3.3h-5.2v-2.2l-1.1-1.1h-10.4v3.3v5.2v3.3h10.4l1.1-1.1v-2.2h5.2v3.3v2.8
		l-2.5,2.4h-2.7h-11.5h-5.2v-5.2v-3.3v-5.2v-3.3v-5.2C168.7,29.1,173.9,29.1,173.9,29.1z"/>
	<path class="st0" d="M199.8,51.4v-0.8v-7.3v-0.5v-5.1v-3.4v-5.2h5.2v8.6h0.5l3.3-3.3l4-3.9l1.5-1.4h7.4l-6.7,6.6l-2.1,2h2.9
		l2.2,5.1l3.6,8.6H216l-3.6-8.6h-4.7H205v2.7v5.9C205,51.4,199.8,51.4,199.8,51.4z"/>
	<path class="st0" d="M239.1,28.9h5.1h8.4V34h-8.4v17.2h-5.1V34h-8.4v-5.1H239.1z"/>
	<path class="st0" d="M267.4,29v14v8.3h-5.2V43v-1.8V29H267.4z"/>
	<path class="st0" d="M285.2,28.9h5.1h8.4V34h-8.4v17.2h-5.1V34h-8.4v-5.1H285.2z"/>
	<path class="st0" d="M322.8,51.3l-1.3-3.6h-11l-1.3,3.6h-5.5l8.2-22.3h8.2l0,0l8.2,22.3H322.8z M319.5,42.5l-3.1-8.3h-1l-3.1,8.3
		H319.5z"/>
	<path class="st0" d="M337,32.1v-2.4V29h5.2h0.7l10.8,14.5V29h5.2v21.5v0.7h-5.2H353l-10.7-14.5v14.5H337V34.1V32.1z"/>
	<path class="st0" d="M373.3,36.7l1.1,1.1H385h2.6l2.5,2.4v2.7v3.5V49l-2.5,2.5H385h-11.7h-5.1v-5.1h2.5h2.6h10.6l1.1-1.1V44
		l-1.1-1.1h-10.6h-2.6l-2.5-2.5v-6v-5.2h5.1H385h5.1v5.1H389h-4h-11.7V36.7z"/>
</g>
<polygon class="st1" points="20,50.4 21.3,49.2 32.8,54.5 32.8,56.3 "/>
<polygon class="st2" points="32.8,56.3 32.8,54.5 44.2,49.2 45.6,50.4 "/>
<polygon class="st3" points="19.1,45.4 20.5,44.8 21.3,49.2 20,50.4 "/>
<polygon class="st4" points="45.6,50.4 44.2,49.2 45,44.8 46.4,45.4 "/>
<polygon class="st2" points="32.8,28.9 32.8,30 31,28.5 30.7,27.2 "/>
<polygon class="st1" points="34.8,27.2 34.6,28.5 32.8,30 32.8,28.9 "/>
<polygon class="st4" points="48,32.7 46.4,33.4 47.7,25.9 49.4,24.4 "/>
<polygon class="st3" points="16.1,24.4 17.8,25.9 19.1,33.4 17.5,32.7 "/>
<path class="st5" d="M57.3,21.2c-0.3,1.8-0.5,4.1-0.9,6.6s-0.7,5.2-1.1,7.8s-0.8,5.2-1.2,7.4s-0.9,4-1.4,5.2
	c-0.4,1.1-0.9,2.3-1.6,3.3c-0.9,1.5-1.9,2.9-3.1,4.1c-1.4,1.5-3.3,3.3-5.8,5.2s-5.6,4.1-9.5,6.5v3.3c4.4-2.7,7.9-5.1,10.7-7.2
	c2.8-2.2,4.8-4.1,6.4-5.8c1.3-1.4,2.5-2.9,3.4-4.6c0.7-1.2,1.3-2.4,1.7-3.7c0.5-1.3,1-3.4,1.5-5.8c0.5-2.4,1-5.3,1.4-8.2
	s0.8-5.9,1.2-8.7s0.7-5.4,1-7.4L57.3,21.2z"/>
<path class="st3" d="M5.4,19.1c0.3,2,0.6,4.6,1,7.4s0.8,5.8,1.2,8.7C8,38.1,8.5,41,9,43.4s1,4.5,1.5,5.8s1.1,2.5,1.7,3.7
	c1,1.7,2.1,3.2,3.4,4.6c1.6,1.7,3.6,3.6,6.4,5.8s6.3,4.6,10.7,7.2v-3.3c-3.9-2.4-7.1-4.6-9.5-6.5s-4.3-3.6-5.8-5.2
	c-1.2-1.3-2.2-2.6-3.1-4.1c-0.6-1.1-1.1-2.2-1.6-3.3c-0.5-1.2-0.9-3-1.4-5.2c-0.4-2.2-0.9-4.7-1.2-7.4c-0.4-2.6-0.8-5.3-1.1-7.8
	S8.5,23,8.3,21.2L5.4,19.1z"/>
<polygon class="st2" points="49.4,24.4 47.7,25.9 36.5,20.9 37,18.8 "/>
<polygon class="st5" points="28.5,18.8 29,20.9 17.8,25.9 16.1,24.4 "/>
<path class="st0" d="M37,12.6l17.9,8.7c-0.1,0.3-0.3,2-0.8,4.5s-1,5.6-1.6,8.9s-1.2,6.6-1.8,9.3s-1.1,4.8-1.5,5.6
	c-0.4,1-0.9,2-1.5,2.9C46.9,53.8,46,55,45,56.1c-1.4,1.5-3,2.8-4.8,4c-2.3,1.6-4.8,2.9-7.5,3.9c-2.6-1.1-5.1-2.4-7.5-3.9
	c-1.7-1.1-3.3-2.5-4.8-4c-1.1-1.1-2-2.3-2.8-3.7c-0.6-0.9-1.1-1.9-1.5-2.9c-0.4-0.8-0.9-2.9-1.5-5.6c-0.6-2.7-1.2-6-1.8-9.3
	s-1.2-6.4-1.6-8.9s-0.7-4.2-0.8-4.5l17.9-8.7v6.2l-12.5,5.6l1.5,8.3l15.2,5.8L48,32.7l1.5-8.3L37,18.8V12.6z M45.6,50.4l0.8-5
	l-13.6,6.1l-13.6-6.1l0.8,5l12.8,5.9L45.6,50.4"/>
<polygon class="st6" points="60.1,19.1 57.3,21.2 34.6,10.7 34.8,7.4 "/>
<polygon class="st6" points="30.7,7.4 31,10.7 8.3,21.2 5.4,19.1 "/>
<path class="st0" d="M32.8,3l31.4,14.6c0,0.3-0.3,2.3-0.7,5S62.6,29,62,32.7s-1.2,7.6-1.8,10.8s-1.1,5.8-1.5,7.1
	c-0.4,1.1-1.1,2.6-2.2,4.3c-1.4,2.1-3,4-4.7,5.7c-2.4,2.5-5,4.7-7.7,6.8c-3.6,2.7-7.4,5.2-11.3,7.5c-3.9-2.3-7.7-4.8-11.3-7.5
	c-2.7-2.1-5.3-4.4-7.7-6.8C12,58.9,10.4,57,9,54.9c-1.1-1.7-1.8-3.1-2.2-4.3c-0.4-1.3-1-3.9-1.5-7.1c-0.6-3.2-1.2-7.1-1.7-10.8
	C2.9,29,2.4,25.4,2,22.6s-0.6-4.7-0.7-5L32.8,3z M55,49.2c0.5-1.3,1-3.4,1.5-5.8c0.5-2.4,1-5.3,1.4-8.2s0.8-5.9,1.2-8.7
	s0.7-5.4,1-7.4L34.8,7.4v19.8l-2,1.7l-2-1.7V7.4L5.4,19.1c0.3,2,0.6,4.6,1,7.4s0.8,5.8,1.2,8.7C8,38.1,8.5,41,9,43.4s1,4.5,1.5,5.8
	s1.1,2.5,1.7,3.7c1,1.7,2.1,3.2,3.4,4.6c1.6,1.7,3.6,3.6,6.4,5.8s6.3,4.6,10.7,7.2c4.4-2.7,7.9-5.1,10.7-7.2s4.8-4.1,6.4-5.8
	c1.3-1.4,2.5-2.9,3.4-4.6C54,51.7,54.5,50.5,55,49.2"/>
</svg>
