<?xml version="1.0" encoding="utf-8"?>
<!-- Generator: Adobe Illustrator 25.4.1, SVG Export Plug-In . SVG Version: 6.00 Build 0)  -->
<svg version="1.1" id="Layer_1" xmlns="http://www.w3.org/2000/svg" xmlns:xlink="http://www.w3.org/1999/xlink" x="0px" y="0px"
	 viewBox="0 0 41.6 40.4" style="enable-background:new 0 0 41.6 40.4;" xml:space="preserve">
<style type="text/css">
	.st0{fill:#5AFFE7;}
	.st1{fill:none;stroke:#5AFFE7;stroke-width:2;stroke-miterlimit:10;}
</style>
<path class="st0" d="M29.2,30.7H13.1c-0.4,0-0.8,0.3-0.8,0.8v0.9c0,0.4,0.3,0.8,0.8,0.8h16.2c0.4,0,0.8-0.3,0.8-0.8v-0.9
	C30,31.1,29.6,30.7,29.2,30.7z M13.4,17.2l1.7-0.2c0,0,1-1.5,2-1.2c1,0.3,3.5,0.6,3.8,0.3c0,0-5.5,4.1-5.5,11.2h11.3
	c0,0-0.8-2.9,1.1-7.7C30,14,30,6.7,21.5,6.5c0.4,0.4,0.7,0.9,0.8,1.2c2.2,0.2,3.7,0.9,4.6,2.3c1.4,2,1.3,5.5-0.2,9.3
	c-1.1,2.9-1.3,5.1-1.3,6.6l-0.8,0c0-1.5,0.2-3.9,1.4-6.8c1.4-3.6,1.5-6.8,0.3-8.6C25.5,9.2,24,8.5,22,8.4c-0.2-0.7-1-2.6-3.4-2.9
	l0.7,3l-0.5,0.1l0,0l-2.1,0.7l-0.6,1c0,0-2,2.3-4,3.6l0.1,1.1L12,15.5L13.4,17.2z M17.6,10.1l1.3,0.4l-1.4,0.4L17.6,10.1z
	 M15.1,28.3c-0.4,0-0.8,0.3-0.8,0.8c0,0.4,0.3,0.8,0.8,0.8h12.1c0.4,0,0.8-0.3,0.8-0.8c0-0.4-0.3-0.8-0.8-0.8H15.1z"/>
<circle class="st1" cx="21" cy="20.3" r="18.3"/>
</svg>
