<svg id="Layer_5_copy" data-name="Layer 5 copy" xmlns="http://www.w3.org/2000/svg" xmlns:xlink="http://www.w3.org/1999/xlink" viewBox="0 0 407.14 466.24"><defs><style>.cls-1{fill:#4fb4ed;}.cls-2{fill:#377cd5;}.cls-3{fill:#2b80d1;}.cls-4{fill:#3cabe0;}.cls-5{fill:#2f6fc8;}.cls-6{fill:url(#linear-gradient);}.cls-7{fill:#3258ba;}.cls-8{fill:url(#linear-gradient-2);}</style><linearGradient id="linear-gradient" x1="1059.74" y1="434.29" x2="801.21" y2="556.91" gradientUnits="userSpaceOnUse"><stop offset="0" stop-color="#2fb2eb"/><stop offset="1" stop-color="#252f90"/></linearGradient><linearGradient id="linear-gradient-2" x1="1106.2" y1="363.79" x2="775.5" y2="601.28" xlink:href="#linear-gradient"/></defs><polygon class="cls-1" points="120.67 306.94 129.26 299.29 203.57 333.44 203.57 345.03 120.67 306.94"/><polygon class="cls-2" points="203.57 345.03 203.57 333.44 277.88 299.29 286.47 306.94 203.57 345.03"/><polygon class="cls-3" points="115.3 274.67 124.45 270.37 129.26 299.29 120.67 306.94 115.3 274.67"/><polygon class="cls-4" points="286.47 306.94 277.88 299.29 282.69 270.37 291.83 274.67 286.47 306.94"/><polygon class="cls-2" points="203.57 167.9 203.57 174.65 191.86 164.79 190.5 156.89 203.57 167.9"/><polygon class="cls-1" points="216.63 156.89 215.28 164.79 203.57 174.65 203.57 167.9 216.63 156.89"/><polygon class="cls-4" points="302.14 192.34 291.93 196.56 300.38 148.28 311.57 138.47 302.14 192.34"/><polygon class="cls-3" points="95.56 138.47 106.76 148.28 115.22 196.56 105 192.34 95.56 138.47"/><path class="cls-3" d="M951.8,669.27l-1.3-.82-3-1.92-1.61-1-2.61-1.67-1.72-1.12-2.41-1.55L937.36,660l-2.27-1.5-1.74-1.15-2.17-1.45-1.7-1.14-2.12-1.44-1.65-1.12-2.05-1.41-1.6-1.11-2-1.4-1.56-1.09-2-1.39L915,644.75l-1.94-1.39-1.41-1-2-1.43-1.31-1-2.07-1.54-1.08-.81c-.94-.7-1.86-1.4-2.78-2.1l-.29-.22c-1-.77-2-1.53-3-2.29-.3-.23-.6-.46-.89-.7-.67-.52-1.34-1-2-1.56l-1.11-.88-1.68-1.34-1.15-.93-1.56-1.27-1.16-.95-1.47-1.22-1.13-1c-.48-.39-.94-.79-1.41-1.18l-1.11-1-1.35-1.17-1.08-.93-1.3-1.15-1.05-.93-1.26-1.13-1-.91-1.24-1.14-.95-.87-1.22-1.14-.89-.85c-.42-.39-.82-.78-1.23-1.18l-.81-.77-1.3-1.28c-.22-.22-.45-.43-.66-.65-.56-.55-1.11-1.1-1.64-1.64l-.26-.26-1.83-1.88-.51-.53-1.25-1.32-.66-.71c-.35-.37-.7-.74-1-1.12s-.45-.49-.67-.74-.65-.71-1-1.06l-.68-.76-.89-1-.67-.77-.85-1c-.22-.25-.43-.51-.64-.76s-.55-.65-.82-1l-.62-.76-.77-.94-.61-.76-.74-.93-.58-.74-.71-.93-.55-.72c-.24-.31-.47-.62-.7-.94s-.35-.45-.51-.68l-.7-1-.47-.64-.72-1-.39-.55-.91-1.33-.16-.23q-.53-.76-1-1.53l-.3-.47c-.23-.35-.46-.7-.68-1l-.38-.6-.52-.84c-.53-.85-1-1.69-1.52-2.53-.08-.12-.15-.24-.22-.36-.25-.43-.49-.86-.73-1.29s-.64-1.12-.94-1.66-.43-.82-.65-1.22l-.83-1.57-.61-1.21c-.26-.5-.51-1-.75-1.5l-.57-1.2c-.23-.48-.46-1-.68-1.45l-.54-1.17-.63-1.42c-.16-.38-.33-.76-.49-1.13s-.4-.93-.59-1.39-.31-.74-.46-1.1c-.26-.65-.53-1.3-.78-1.93l-.08-.21c-.32-.78-.62-1.56-.92-2.33q-.32-.81-.63-1.68c-.07-.18-.14-.38-.2-.57-.15-.4-.29-.8-.43-1.22-.08-.23-.15-.46-.23-.7-.14-.4-.27-.82-.4-1.24-.08-.24-.16-.48-.23-.72-.14-.46-.29-.92-.43-1.39-.06-.23-.13-.44-.2-.67l-.59-2.05,0-.09c-.21-.73-.41-1.49-.62-2.25-.06-.25-.13-.5-.19-.76-.14-.52-.28-1.06-.42-1.6-.08-.3-.15-.6-.23-.9l-.39-1.59c-.08-.3-.15-.61-.23-.92-.13-.57-.27-1.15-.41-1.74-.06-.28-.13-.55-.19-.83-.2-.83-.39-1.66-.58-2.51l0-.13c-.2-.89-.39-1.8-.59-2.72-.07-.3-.13-.6-.19-.9-.14-.63-.28-1.27-.41-1.92-.08-.35-.15-.71-.22-1.06-.13-.62-.26-1.24-.38-1.86-.08-.37-.15-.73-.23-1.1s-.15-.77-.23-1.16c-.31-1.59-.63-3.2-.94-4.85v-.07c-.3-1.58-.6-3.19-.9-4.82-.08-.45-.16-.9-.25-1.36-.3-1.69-.61-3.4-.91-5.14l0-.13c-.3-1.71-.6-3.45-.89-5.19-.08-.48-.16-1-.25-1.45q-.37-2.28-.75-4.59l-.15-.9c-.29-1.81-.59-3.64-.88-5.48l-.21-1.4c-.24-1.48-.47-3-.7-4.47l-.21-1.36c-.1-.68-.2-1.37-.31-2.06q-.48-3.16-.95-6.38l-.33-2.23-1.14-7.85V457c-.39-2.69-.76-5.38-1.14-8.07-.1-.75-.21-1.51-.31-2.27-.3-2.14-.6-4.29-.89-6.43-.08-.64-.17-1.28-.26-1.92l-.21-1.58c-.2-1.44-.39-2.89-.59-4.32-.06-.49-.13-1-.19-1.48-.25-1.81-.49-3.62-.72-5.41-.06-.4-.11-.79-.16-1.18-.2-1.5-.4-3-.59-4.48l-.27-2.06-.12-.89q-.49-3.78-1-7.45c-.07-.51-.14-1-.2-1.53-.13-1-.26-2-.39-3-.22-1.64-.42-3.25-.63-4.84-.09-.66-.17-1.32-.26-2L805,396.5c-.11-.8-.21-1.58-.31-2.37-.06-.41-.11-.82-.16-1.23-.12-.93-.25-1.85-.37-2.76,0-.34-.08-.67-.13-1-.11-.83-.22-1.65-.32-2.46,0-.25-.07-.51-.1-.76-.14-1-.28-2.05-.41-3.06,0-.19-.05-.39-.08-.59l-.33-2.41c0-.27-.07-.55-.11-.82-.13-1-.26-1.91-.38-2.83L784,362.84c.14,1,.29,2.08.43,3.15,0,.31.09.62.13.93.11.86.23,1.73.35,2.62,0,.26.07.51.1.77.15,1.1.3,2.23.45,3.37,0,.27.08.55.11.83.13.94.25,1.9.38,2.86l.12.89c.16,1.21.32,2.43.48,3.68V382c.16,1.18.31,2.38.47,3.59l.21,1.6.33,2.48.15,1.2c.1.74.2,1.49.29,2.25.06.46.12.91.18,1.38l.05.37.09.69c.11.79.21,1.57.31,2.37l.27,2.09.45,3.38.11.91.51,3.89c0,.32.09.65.13,1,.07.5.13,1,.2,1.5l.12.89c.21,1.64.43,3.28.65,4.93.06.44.11.88.17,1.32l.81,6.06.21,1.58c.22,1.66.45,3.33.67,5,.07.53.15,1,.22,1.58l.12.93c.06.44.13.89.19,1.33q.48,3.56,1,7.13c.12.84.24,1.67.35,2.51q.63,4.5,1.27,9l0,.11q.63,4.41,1.27,8.8l.36,2.45c.14,1,.28,1.94.43,2.9l.81,5.38c0,.11,0,.22.05.33s0,.33.07.49c.23,1.48.46,3,.68,4.43v.05c.22,1.44.45,2.87.67,4.3.07.39.13.79.19,1.19.19,1.16.37,2.32.56,3.47l.15.95q.35,2.13.69,4.23c.06.31.11.62.16.93.19,1.13.37,2.25.56,3.36.07.39.14.78.2,1.18.24,1.38.47,2.76.71,4.12l0,.11c.23,1.32.46,2.63.7,3.93.07.38.13.76.2,1.13.19,1.08.39,2.15.58,3.21l.12.62c0,.08,0,.16,0,.25.22,1.16.43,2.31.65,3.44l.06.31c.2,1,.39,2.06.59,3.08.07.36.15.72.22,1.08l.3,1.55c0,.24.1.46.14.69.08.41.16.81.25,1.21.14.7.28,1.4.42,2.08l.15.72c0,.16.07.32.1.47l.45,2.14c.07.33.15.67.22,1,.22,1,.44,2,.66,3l0,.1c.21,1,.43,1.91.65,2.84l.21.91c.16.66.31,1.31.46,2,0,.14.08.3.11.44s.1.39.14.58l.45,1.78c.08.33.16.66.25,1,.15.62.31,1.22.47,1.82l.21.82c.23.85.46,1.69.69,2.51,0,0,0,.06,0,.09.22.79.44,1.55.66,2.3l.06.2c.06.18.11.36.17.54.15.53.31,1,.47,1.55.08.27.17.54.25.81.15.47.31.93.46,1.39.08.26.17.52.25.77.16.47.32.92.48,1.37l.22.64c.24.64.47,1.26.7,1.86.14.37.29.73.43,1.1s.3.74.44,1.11c.05.13.11.26.16.4l.09.23c.07.16.14.33.2.5.15.37.31.75.46,1.13l.22.52.51,1.23c.21.51.43,1,.66,1.55l.55,1.27.7,1.57c.19.44.39.87.59,1.31l.76,1.62c.21.44.42.89.64,1.33s.55,1.12.84,1.68.45.89.68,1.35.61,1.17.93,1.75.47.9.72,1.35c.34.62.69,1.24,1,1.87l.6,1.08.22.36.23.4c.55.93,1.11,1.87,1.7,2.82l.06.1.54.86.41.64c.24.39.5.78.75,1.17l.34.53c.37.56.75,1.14,1.14,1.71l.18.26,1,1.47.45.64c.26.37.52.75.79,1.12l.53.73.77,1.06c.19.26.38.52.58.77s.51.69.77,1l.63.82.78,1,.66.84.81,1,.69.85.85,1.05.71.86.88,1,.74.88.93,1.08.76.87c.32.37.65.75,1,1.12l.76.87,1.05,1.15.6.67.17.18c.38.42.77.83,1.16,1.25l.74.79.12.13,1.25,1.31.59.62c.67.7,1.35,1.39,2,2.1l.3.29c.6.61,1.2,1.22,1.82,1.83l.73.72,1.46,1.43.91.88,1.36,1.3,1,.95,1.35,1.26,1.06,1,1.38,1.26,1.11,1,1.42,1.27,1.15,1,1.47,1.29,1.2,1.05,1.51,1.3,1.23,1c.52.45,1,.89,1.58,1.33s.83.71,1.26,1.06,1.09.91,1.65,1.37.84.7,1.28,1.05l1.76,1.44,1.25,1,1.93,1.54,1.19.95,2.23,1.75.9.7.09.07.1.08c1,.82,2.13,1.65,3.22,2.48l.28.21c1,.79,2.07,1.58,3.13,2.37l1.22.91,2.31,1.72,1.43,1c.73.53,1.45,1.07,2.19,1.6l1.59,1.15,2.15,1.55,1.68,1.19,2.18,1.55,1.74,1.22,2.22,1.55,1.82,1.26,2.26,1.55L923.5,672l2.31,1.57,1.94,1.3,2.39,1.6,2,1.3,2.51,1.65,2,1.29,2.65,1.72,1.95,1.25,2.86,1.83,1.86,1.19,3.29,2.08,1.55,1,5,3.08,0,0h0l1.26.78,1.32.81,1.33.82,1.34.82V675Q956.28,672.08,951.8,669.27Z" transform="translate(-757.43 -258.63)"/><path class="cls-5" d="M1119.69,376.2c-1.63,11.8-3.53,26.7-5.66,42.9s-4.49,33.7-7,50.68-5.24,33.46-8.06,47.62-5.78,26-8.79,33.73a148.75,148.75,0,0,1-10.07,21.46,152.62,152.62,0,0,1-20,26.74c-9.14,10-21.15,21.08-37.26,33.6S986.53,659.37,961,675v21.18c28.48-17.39,51-32.93,69-46.89s31.37-26.36,41.56-37.48a170.8,170.8,0,0,0,22.31-29.83,164.89,164.89,0,0,0,11.23-24c3.36-8.62,6.65-21.83,9.8-37.63s6.18-34.17,9-53.12,5.46-38.46,7.83-56.54,4.5-34.69,6.31-47.86Z" transform="translate(-757.43 -258.63)"/><polygon class="cls-2" points="311.57 138.47 300.38 148.28 228.03 115.77 230.86 102.2 311.57 138.47"/><polygon class="cls-5" points="176.28 102.2 179.1 115.77 106.76 148.28 95.56 138.47 176.28 102.2"/><path class="cls-6" d="M988.42,320.63l115.65,56.22c-.34,2-2.19,13.17-4.93,29.07s-6.35,36.58-10.22,57.65-8,42.56-11.75,60.09-7.12,31.13-9.49,36.41a175.1,175.1,0,0,1-9.69,19,138.08,138.08,0,0,1-17.93,23.73,177.3,177.3,0,0,1-30.79,25.87A276.74,276.74,0,0,1,961,654.19a277.1,277.1,0,0,1-48.27-25.48,177.68,177.68,0,0,1-30.79-25.87A139.12,139.12,0,0,1,864,579.11a175.1,175.1,0,0,1-9.69-19c-2.36-5.28-5.74-18.87-9.49-36.41s-7.87-39-11.74-60.09-7.5-41.74-10.23-57.65-4.59-27.05-4.92-29.07l115.65-56.22.11,40.21L853,397.11,862.43,451,961,488.48,1059.57,451l9.43-53.86-80.71-36.27Zm55.48,244.94,5.36-32.27L961,573.06,872.73,533.3l5.37,32.27,82.9,38.1,82.9-38.1" transform="translate(-757.43 -258.63)"/><polygon class="cls-7" points="380.6 104.2 362.26 117.56 215.28 49.84 216.63 28.65 380.6 104.2"/><polygon class="cls-7" points="190.5 28.65 191.86 49.84 44.89 117.56 26.54 104.2 190.5 28.65"/><path class="cls-8" d="M961,258.63l203.57,94.46c-.3,2.26-2,14.68-4.47,32.56s-5.85,41.22-9.49,65.31-7.61,49-11.34,69.86-7.24,37.86-10,46.17c-2.46,7.42-7,16.83-14.31,27.81A265.18,265.18,0,0,1,1084.48,632a451,451,0,0,1-50.15,44.19A694,694,0,0,1,961,724.87a694,694,0,0,1-73.33-48.64A449.23,449.23,0,0,1,837.52,632a265.18,265.18,0,0,1-30.47-37.24c-7.27-11-11.85-20.39-14.31-27.81-2.77-8.31-6.28-25.27-10-46.17S775,475.06,771.39,451s-7-47.43-9.49-65.31-4.17-30.3-4.47-32.56ZM1105.09,558c3.36-8.62,6.65-21.83,9.8-37.63s6.18-34.17,9-53.12,5.46-38.46,7.83-56.54,4.5-34.69,6.31-47.86l-164-75.56V415.52l-13.06,11-13.07-11V287.28L784,362.84c1.81,13.17,3.93,29.79,6.31,47.86s5,37.59,7.83,56.54,5.84,37.33,9,53.12,6.44,29,9.8,37.63a167,167,0,0,0,11.23,24,170.8,170.8,0,0,0,22.31,29.83C860.63,622.89,874,635.29,892,649.25s40.51,29.5,69,46.89c28.48-17.39,51-32.93,69-46.89s31.37-26.36,41.56-37.48a170.8,170.8,0,0,0,22.31-29.83,164.89,164.89,0,0,0,11.23-24" transform="translate(-757.43 -258.63)"/></svg>