<svg id="Layer_2" data-name="Layer 2" xmlns="http://www.w3.org/2000/svg" viewBox="0 0 27.94 32"><defs><style>.cls-1{fill:#a1a1a1;}.cls-2{fill:#848484;}.cls-3{fill:#9e9e9e;}.cls-4{fill:gray;}.cls-5{fill:#858585;}.cls-6{fill:#212b38;}</style></defs><polygon class="cls-1" points="8.28 21.07 8.87 20.54 13.97 22.89 13.97 23.68 8.28 21.07"/><polygon class="cls-2" points="13.97 23.68 13.97 22.89 19.07 20.54 19.66 21.07 13.97 23.68"/><polygon class="cls-3" points="7.91 18.85 8.54 18.56 8.87 20.54 8.28 21.07 7.91 18.85"/><polygon class="cls-4" points="19.66 21.07 19.07 20.54 19.4 18.56 20.03 18.85 19.66 21.07"/><polygon class="cls-4" points="13.97 11.52 13.97 11.99 13.17 11.31 13.07 10.77 13.97 11.52"/><polygon class="cls-4" points="14.87 10.77 14.78 11.31 13.97 11.99 13.97 11.52 14.87 10.77"/><polygon class="cls-4" points="20.74 13.2 20.04 13.49 20.62 10.18 21.39 9.5 20.74 13.2"/><polygon class="cls-3" points="6.56 9.5 7.33 10.18 7.91 13.49 7.21 13.2 6.56 9.5"/><path class="cls-5" d="M27.39,8.07c-.11.81-.24,1.83-.39,2.94s-.3,2.32-.48,3.48-.36,2.3-.55,3.27a15.53,15.53,0,0,1-.61,2.32,9.83,9.83,0,0,1-.69,1.47,10,10,0,0,1-1.37,1.83,20.11,20.11,0,0,1-2.56,2.31,45.34,45.34,0,0,1-4.24,2.88V30a54.16,54.16,0,0,0,4.74-3.22,23.57,23.57,0,0,0,2.85-2.57,11.72,11.72,0,0,0,1.53-2,11.62,11.62,0,0,0,.77-1.64A16.53,16.53,0,0,0,27.06,18c.22-1.08.43-2.34.62-3.64s.37-2.64.54-3.88.31-2.38.43-3.29Z" transform="translate(-2.53)"/><path class="cls-3" d="M5.63,8.07c.11.81.24,1.83.38,2.94s.31,2.32.49,3.48.35,2.3.55,3.27a15.71,15.71,0,0,0,.6,2.32,10.94,10.94,0,0,0,.69,1.47,10.66,10.66,0,0,0,1.38,1.83,19.93,19.93,0,0,0,2.55,2.31,45.66,45.66,0,0,0,4.25,2.88V30a52.67,52.67,0,0,1-4.74-3.22,23.57,23.57,0,0,1-2.85-2.57,11.72,11.72,0,0,1-1.53-2,11.62,11.62,0,0,1-.77-1.64A17.54,17.54,0,0,1,6,18c-.21-1.08-.42-2.34-.61-3.64S5,11.68,4.8,10.44s-.31-2.38-.43-3.29Z" transform="translate(-2.53)"/><polygon class="cls-4" points="21.39 9.5 20.62 10.18 15.65 7.95 15.85 7.01 21.39 9.5"/><polygon class="cls-4" points="12.1 7.01 12.29 7.95 7.33 10.18 6.56 9.5 12.1 7.01"/><path class="cls-6" d="M18.38,4.25l7.94,3.86c0,.14-.15.91-.34,2s-.43,2.51-.7,4-.55,2.92-.81,4.12a16.87,16.87,0,0,1-.65,2.5A11.47,11.47,0,0,1,23.16,22a9.63,9.63,0,0,1-1.23,1.62,12.15,12.15,0,0,1-2.12,1.78,18.6,18.6,0,0,1-3.31,1.75,18.6,18.6,0,0,1-3.31-1.75,12.15,12.15,0,0,1-2.12-1.78A9.63,9.63,0,0,1,9.84,22a11.47,11.47,0,0,1-.66-1.31,16.87,16.87,0,0,1-.65-2.5C8.27,17,8,15.51,7.72,14.07s-.51-2.87-.7-4-.32-1.86-.34-2l7.94-3.86V7L9.09,9.5l.64,3.7,6.77,2.58,6.77-2.58.64-3.7L18.37,7Zm3.81,16.82.37-2.22L16.5,21.58l-6.06-2.73.37,2.22,5.69,2.61,5.69-2.61" transform="translate(-2.53)"/><polygon class="cls-4" points="26.12 7.15 24.86 8.07 14.78 3.42 14.87 1.97 26.12 7.15"/><polygon class="cls-4" points="13.07 1.97 13.17 3.42 3.08 8.07 1.82 7.15 13.07 1.97"/><path class="cls-6" d="M16.5,0l14,6.48c0,.16-.13,1-.31,2.24s-.4,2.83-.65,4.48S29,16.56,28.74,18a28.9,28.9,0,0,1-.69,3.17,8.25,8.25,0,0,1-1,1.91A17.91,17.91,0,0,1,25,25.63a30,30,0,0,1-3.44,3,47.14,47.14,0,0,1-5,3.34,47.14,47.14,0,0,1-5-3.34,31,31,0,0,1-3.45-3,18.46,18.46,0,0,1-2.09-2.56,8.25,8.25,0,0,1-1-1.91A28.9,28.9,0,0,1,4.26,18c-.25-1.43-.52-3.14-.77-4.79S3,9.94,2.84,8.72s-.29-2.08-.31-2.24Zm9.89,20.55A16.53,16.53,0,0,0,27.06,18c.22-1.08.43-2.34.62-3.64s.37-2.64.54-3.88.31-2.38.43-3.29L17.4,2v8.8l-.9.75-.9-.75V2L4.35,7.15c.12.91.27,2,.43,3.29s.35,2.58.54,3.88.4,2.56.62,3.64a16.53,16.53,0,0,0,.67,2.59,11.62,11.62,0,0,0,.77,1.64,11.72,11.72,0,0,0,1.53,2,23.57,23.57,0,0,0,2.85,2.57A54.16,54.16,0,0,0,16.5,30a54.16,54.16,0,0,0,4.74-3.22,23.57,23.57,0,0,0,2.85-2.57,11.72,11.72,0,0,0,1.53-2,11.62,11.62,0,0,0,.77-1.64" transform="translate(-2.53)"/></svg>